 <svg version="1.0" xmlns="http://www.w3.org/2000/svg" width="700.000000pt" height="348.000000pt" viewBox="0 0 700.000000 348.000000" preserveAspectRatio="xMidYMid meet">
<metadata>
Created by potrace 1.12, written by Peter Selinger 2001-2015
</metadata>
<g transform="translate(0.000000,348.000000) scale(0.100000,-0.100000)" fill="#000000" stroke="none">
<path d="M3447 3423 c-4 -3 -7 -97 -7 -207 l0 -200 -295 -296 -294 -295 -3
-135 -3 -135 -197 -3 -198 -2 -2 -418 -3 -417 -92 -3 -93 -3 0 -59 0 -60 1243
0 c684 0 1246 2 1248 4 2 2 2 29 1 60 l-4 56 -89 0 -89 0 0 420 0 420 -202 2
-203 3 -3 135 -3 135 -291 292 c-161 161 -289 295 -285 299 3 3 92 6 197 5
l190 -2 0 85 0 84 -192 121 -192 121 -66 0 c-37 0 -70 -3 -73 -7z m219 -194
c126 -77 126 -80 8 -77 l-99 3 -3 63 c-2 34 0 62 4 62 3 0 44 -23 90 -51z
m362 -1384 l-3 -530 -70 0 -70 0 -3 295 -2 295 -373 -2 -372 -2 -3 -296 -2
-295 -74 0 c-58 0 -75 3 -80 16 -3 9 -6 243 -6 520 0 417 2 510 14 532 8 15
127 139 266 277 l251 249 264 -264 265 -265 -2 -530z m-1183 -175 l0 -355
-135 0 -135 0 -3 345 c-1 190 0 351 3 358 3 10 36 12 137 10 l133 -3 0 -355z
m1590 0 l0 -355 -135 0 -135 0 -3 345 c-1 190 0 351 3 358 3 10 36 12 137 10
l133 -3 0 -355z m-690 -125 l0 -230 -242 -3 -243 -2 0 235 0 235 243 -2 242
-3 0 -230z"></path>
<path d="M3442 2549 c-62 -12 -115 -45 -155 -98 -48 -63 -59 -94 -59 -173 -1
-125 75 -230 189 -264 74 -22 104 -22 175 0 185 59 248 282 126 446 -28 39
-93 75 -158 89 -57 12 -58 12 -118 0z m139 -142 c99 -66 105 -183 13 -253 -48
-37 -127 -41 -170 -8 -53 39 -69 70 -69 134 0 54 3 62 35 96 19 20 44 40 55
44 39 17 101 11 136 -13z"></path>
<path d="M2110 764 l0 -265 27 3 27 3 1 120 0 120 157 3 157 3 3 -123 c3 -121
3 -123 26 -123 l23 0 2 263 2 263 -25 -3 c-25 -3 -25 -5 -30 -113 l-5 -110
-152 -3 -152 -3 -7 27 c-4 14 -4 66 -2 115 l5 89 -28 0 -29 0 0 -266z"></path>
<path d="M2730 891 c-43 -14 -90 -41 -90 -52 0 -20 31 -20 73 0 24 12 56 21
71 21 58 0 105 -44 106 -100 l0 -35 -99 0 -100 0 -35 -34 c-30 -29 -36 -42
-36 -77 0 -53 33 -95 88 -113 33 -11 47 -11 94 3 31 9 61 23 68 31 17 21 25
19 38 -10 13 -28 49 -34 58 -10 4 8 -1 26 -10 40 -12 19 -16 50 -16 135 0 121
-10 155 -55 184 -30 20 -118 30 -155 17z m135 -201 c24 -9 26 -14 23 -56 -4
-60 -35 -85 -112 -92 -48 -4 -57 -1 -80 21 -45 46 -30 100 34 126 33 13 102
14 135 1z"></path>
<path d="M3062 703 c3 -190 4 -198 23 -198 19 0 20 8 23 124 2 105 6 128 22
152 39 53 107 81 154 63 33 -12 41 -48 46 -194 l5 -145 25 0 c24 0 25 3 28 65
6 122 -8 247 -32 282 -40 60 -135 61 -204 3 -40 -34 -52 -31 -52 10 0 28 -4
35 -20 35 -20 0 -20 -5 -18 -197z"></path>
<path d="M3585 881 c-52 -23 -89 -67 -110 -132 -17 -49 -17 -55 -1 -106 24
-76 66 -119 132 -139 49 -14 59 -14 107 0 86 25 137 96 137 188 -1 151 -136
248 -265 189z m148 -56 c71 -49 87 -140 38 -217 -76 -119 -238 -70 -248 75
-10 127 111 209 210 142z"></path>
<path d="M3885 890 c-3 -5 -1 -17 5 -27 6 -10 42 -94 79 -188 66 -162 70 -170
96 -170 15 0 31 7 36 15 12 25 35 80 68 165 18 44 36 89 41 100 30 65 40 99
31 108 -20 20 -40 -4 -71 -85 -17 -46 -38 -96 -45 -113 -7 -16 -21 -51 -30
-77 -10 -27 -21 -48 -25 -48 -5 0 -31 60 -60 133 -58 150 -71 179 -85 189 -14
11 -33 10 -40 -2z"></path>
<path d="M4426 893 c-11 -3 -37 -16 -59 -30 -46 -29 -87 -108 -87 -168 1 -87
66 -170 154 -195 42 -11 55 -11 100 3 54 17 113 67 102 86 -11 18 -33 13 -59
-13 -32 -32 -88 -47 -131 -35 -41 11 -68 34 -90 76 -32 63 -33 62 147 65 l162
3 -2 45 c-3 52 -42 114 -90 142 -32 19 -113 31 -147 21z m109 -53 c42 -20 93
-90 80 -110 -4 -6 -61 -10 -141 -10 -147 0 -149 1 -120 58 19 36 48 61 82 72
44 13 54 12 99 -10z"></path>
<path d="M4756 891 c-4 -6 -7 -95 -7 -198 l-1 -188 24 0 c23 0 23 2 28 133 l5
134 32 29 c18 16 45 31 60 35 16 3 34 7 41 10 13 4 17 40 4 47 -17 11 -63 -7
-101 -39 l-40 -34 -3 37 c-3 37 -28 57 -42 34z"></path>
</g>
</svg>